<svg width="63" height="55" viewBox="0 0 63 55" fill="none" xmlns="http://www.w3.org/2000/svg">
<path opacity="0.3" d="M47.1598 54.6043C51.8264 54.6043 55.5598 52.9376 58.3598 49.6043C61.0264 46.1376 62.3598 41.671 62.3598 36.2043C62.3598 28.7376 60.3598 22.0043 56.3598 16.0043C52.2264 9.87095 45.9598 4.73762 37.5598 0.604294L35.3598 3.80429C39.3598 6.20429 43.0264 9.60429 46.3598 14.0043C49.5598 18.271 51.1598 22.6043 51.1598 27.0043C51.1598 28.2043 50.8264 29.2043 50.1598 30.0043C49.4931 30.671 48.4931 31.0043 47.1598 31.0043C43.8264 31.0043 41.0264 32.2043 38.7598 34.6043C36.3598 36.871 35.1598 39.671 35.1598 43.0043C35.1598 46.3376 36.3598 49.1376 38.7598 51.4043C41.0264 53.5376 43.8264 54.6043 47.1598 54.6043ZM12.5598 54.6043C17.2264 54.6043 20.9598 52.9376 23.7598 49.6043C26.4264 46.1376 27.7598 41.671 27.7598 36.2043C27.7598 28.7376 25.7598 22.0043 21.7598 16.0043C17.6264 9.87095 11.3598 4.73762 2.95976 0.604294L0.759761 3.80429C4.75976 6.20429 8.42643 9.60429 11.7598 14.0043C14.9598 18.271 16.5598 22.6043 16.5598 27.0043C16.5598 28.2043 16.2264 29.2043 15.5598 30.0043C14.8931 30.671 13.8931 31.0043 12.5598 31.0043C9.22643 31.0043 6.42643 32.2043 4.15976 34.6043C1.75976 36.871 0.559763 39.671 0.559763 43.0043C0.559763 46.3376 1.75976 49.1376 4.15976 51.4043C6.42643 53.5376 9.22643 54.6043 12.5598 54.6043Z" fill="#B1B1B1"/>
</svg>
