<svg width="32" height="35" viewBox="0 0 32 35" fill="none" xmlns="http://www.w3.org/2000/svg">
<path d="M15.9248 6.0634C16.7878 6.0634 17.4875 6.76307 17.4875 7.62615V16.8818L24.8265 21.1189C25.5739 21.5505 25.83 22.5063 25.3985 23.2537C24.9669 24.0012 24.0111 24.2573 23.2637 23.8257L15.9248 19.5886L8.58582 23.8257C7.83837 24.2573 6.8826 24.0012 6.45106 23.2537C6.01951 22.5063 6.27561 21.5505 7.02306 21.1189L14.362 16.8818V7.62615C14.362 6.76307 15.0617 6.0634 15.9248 6.0634Z" fill="black" fill-opacity="0.85"/>
<path d="M10.1082 12.7888C10.8557 12.3572 11.1118 11.4015 10.6803 10.654C10.2487 9.90654 9.29295 9.65044 8.5455 10.082L6.34623 11.3517C5.86271 11.6309 5.56485 12.1468 5.56485 12.7051V15.2446C5.56485 16.1077 6.26452 16.8073 7.1276 16.8073C7.99069 16.8073 8.69036 16.1077 8.69036 15.2446V13.6074L10.1082 12.7888Z" fill="black" fill-opacity="0.85"/>
<path d="M23.3038 10.082C22.5563 9.65044 21.6005 9.90654 21.169 10.654C20.7375 11.4015 20.9936 12.3572 21.741 12.7888L23.1589 13.6074V15.2446C23.1589 16.1077 23.8586 16.8073 24.7217 16.8073C25.5847 16.8073 26.2844 16.1077 26.2844 15.2446V12.7051C26.2844 12.1468 25.9866 11.6309 25.503 11.3517L23.3038 10.082Z" fill="black" fill-opacity="0.85"/>
<path d="M14.5067 25.3189C13.7592 24.8873 12.8035 25.1434 12.3719 25.8909C11.9404 26.6383 12.1965 27.5941 12.9439 28.0256L15.1432 29.2954C15.6267 29.5745 16.2224 29.5745 16.706 29.2954L18.9052 28.0256C19.6527 27.5941 19.9088 26.6383 19.4772 25.8909C19.0457 25.1434 18.0899 24.8873 17.3425 25.3189L15.9246 26.1375L14.5067 25.3189Z" fill="black" fill-opacity="0.85"/>
<path d="M15.1434 0.803118C15.6269 0.523961 16.2226 0.523961 16.7061 0.803118L23.4731 4.71001L30.24 8.6169C30.7235 8.89606 31.0214 9.41197 31.0214 9.97029V25.5978C31.0214 26.1562 30.7235 26.6721 30.24 26.9512L16.7061 34.765C16.2226 35.0442 15.6269 35.0442 15.1434 34.765L1.6095 26.9512C1.12598 26.6721 0.828125 26.1562 0.828125 25.5978V9.97029C0.828125 9.41197 1.12598 8.89606 1.6095 8.6169L15.1434 0.803118ZM15.9247 3.96102L3.95364 10.8725V24.6956L15.9247 31.6071L27.8958 24.6956V10.8725L15.9247 3.96102Z" fill="black" fill-opacity="0.85"/>
</svg>
