<svg width="62" height="55" viewBox="0 0 62 55" fill="none" xmlns="http://www.w3.org/2000/svg">
<path opacity="0.3" d="M15.3598 54.6043C10.6931 54.6043 6.95977 52.9376 4.15977 49.6043C1.4931 46.1376 0.159766 41.671 0.159766 36.2043C0.159766 28.7376 2.15977 22.0043 6.15977 16.0043C10.2931 9.87095 16.5598 4.73762 24.9598 0.604294L27.1598 3.80429C23.1598 6.20429 19.4931 9.60429 16.1598 14.0043C12.9598 18.271 11.3598 22.6043 11.3598 27.0043C11.3598 28.2043 11.6931 29.2043 12.3598 30.0043C13.0264 30.671 14.0264 31.0043 15.3598 31.0043C18.6931 31.0043 21.4931 32.2043 23.7598 34.6043C26.1598 36.871 27.3598 39.671 27.3598 43.0043C27.3598 46.3376 26.1598 49.1376 23.7598 51.4043C21.4931 53.5376 18.6931 54.6043 15.3598 54.6043ZM49.9598 54.6043C45.2931 54.6043 41.5598 52.9376 38.7598 49.6043C36.0931 46.1376 34.7598 41.671 34.7598 36.2043C34.7598 28.7376 36.7598 22.0043 40.7598 16.0043C44.8931 9.87095 51.1598 4.73762 59.5598 0.604294L61.7598 3.80429C57.7598 6.20429 54.0931 9.60429 50.7598 14.0043C47.5598 18.271 45.9598 22.6043 45.9598 27.0043C45.9598 28.2043 46.2931 29.2043 46.9598 30.0043C47.6264 30.671 48.6264 31.0043 49.9598 31.0043C53.2931 31.0043 56.0931 32.2043 58.3598 34.6043C60.7598 36.871 61.9598 39.671 61.9598 43.0043C61.9598 46.3376 60.7598 49.1376 58.3598 51.4043C56.0931 53.5376 53.2931 54.6043 49.9598 54.6043Z" fill="#B1B1B1"/>
</svg>
