<svg width="18" height="16" viewBox="0 0 18 16" fill="none" xmlns="http://www.w3.org/2000/svg">
<path fill-rule="evenodd" clip-rule="evenodd" d="M15.8 0.824997H2.2C1.05789 0.824997 0.125 1.75789 0.125 2.9V13.1C0.125 14.2421 1.05789 15.175 2.2 15.175H15.8C16.9421 15.175 17.875 14.2421 17.875 13.1V2.9C17.875 1.75789 16.9421 0.824997 15.8 0.824997ZM2.2 1.575H15.8C16.5279 1.575 17.125 2.1721 17.125 2.9V13.1C17.125 13.8279 16.5279 14.425 15.8 14.425H2.2C1.47211 14.425 0.875 13.8279 0.875 13.1V2.9C0.875 2.1721 1.47211 1.575 2.2 1.575Z" fill="black"/>
<path fill-rule="evenodd" clip-rule="evenodd" d="M17.285 2.59278C17.4547 2.47402 17.6885 2.51528 17.8072 2.68495C17.9152 2.83919 17.8909 3.04646 17.7581 3.1721L17.7151 3.20721L9.21508 9.15721C9.1021 9.23629 8.9564 9.24618 8.83524 9.18687L8.78498 9.15721L0.284984 3.20721C0.115315 3.08844 0.0740523 2.85462 0.19282 2.68495C0.300791 2.5307 0.50385 2.48258 0.667351 2.56434L0.715081 2.59278L9.00003 8.392L17.285 2.59278Z" fill="black"/>
</svg>
