<svg width="24" height="16" viewBox="0 0 24 16" fill="none" xmlns="http://www.w3.org/2000/svg">
<path fill-rule="evenodd" clip-rule="evenodd" d="M0.549805 1.32629C0.549805 0.649118 1.08674 0.078598 1.77549 0.078598H14.0067C14.3735 0.078598 14.6629 0.246219 14.8334 0.531127C14.9818 0.779147 15.0165 1.07605 15.0165 1.32629V3.2321H17.1801C18.1126 3.2321 19.0029 3.61779 19.6517 4.29774C20.6306 5.26475 22.6477 7.54916 22.8997 7.87097C23.3295 8.41984 23.4498 8.9878 23.4498 9.60867V12.6959C23.4498 13.5849 22.7456 14.3271 21.8512 14.3271H19.9849C19.7364 14.3271 19.5349 14.1256 19.5349 13.8771C19.5349 13.6286 19.7364 13.4271 19.9849 13.4271H21.8512C22.2251 13.4271 22.5498 13.1117 22.5498 12.6959V9.60867C22.5498 9.1224 22.4613 8.77094 22.1912 8.4259C21.9652 8.13737 19.9677 5.87408 19.0145 4.93336L19.0093 4.92827L19.0043 4.92301C18.5223 4.41566 17.8644 4.1321 17.1801 4.1321H14.1165V1.32629C14.1165 1.13594 14.0855 1.03399 14.0611 0.993316C14.0582 0.988525 14.0561 0.985654 14.0548 0.984074C14.0496 0.982279 14.0351 0.978598 14.0067 0.978598H1.77549C1.60736 0.978598 1.4498 1.12228 1.4498 1.32629V13.0792C1.4498 13.2834 1.60753 13.4271 1.77549 13.4271H3.31632C3.56485 13.4271 3.49982 13.6286 3.49982 13.8771C3.49982 14.1256 3.56485 14.3271 3.31632 14.3271H1.77549C1.08657 14.3271 0.549805 13.7562 0.549805 13.0792V1.32629Z" fill="black"/>
<path fill-rule="evenodd" clip-rule="evenodd" d="M17.3446 4.45462H16.2362C15.9915 4.45462 15.793 4.65733 15.793 4.90718V7.13377C15.793 7.38864 15.9953 7.59545 16.2449 7.59545H20.048C20.3052 7.59545 20.4402 7.28318 20.2668 7.08936L18.2956 4.88304C18.0518 4.61018 17.7065 4.45462 17.3446 4.45462ZM17.3446 5.02408C17.5491 5.02408 17.7457 5.11268 17.8835 5.26687L19.455 7.02587H16.3506V5.02408H17.3446Z" fill="black"/>
<path fill-rule="evenodd" clip-rule="evenodd" d="M3.72568 13.7623C3.72568 13.1288 4.21806 12.6418 4.79293 12.6418C5.36779 12.6418 5.86017 13.1288 5.86017 13.7623C5.86017 14.3958 5.36787 14.8826 4.79293 14.8826C4.21799 14.8826 3.72568 14.3958 3.72568 13.7623ZM4.79293 11.7418C3.69198 11.7418 2.82568 12.6612 2.82568 13.7623C2.82568 14.8635 3.69206 15.7826 4.79293 15.7826C5.60931 15.7826 6.29675 15.2771 6.59751 14.5668C6.6235 14.5712 6.65019 14.5735 6.67739 14.5735H16.2135C16.4816 15.3524 17.2026 15.9214 18.0687 15.9214C19.1699 15.9214 20.036 15.0023 20.036 13.9011C20.036 12.8001 19.1699 11.8806 18.0687 11.8806C17.0791 11.8806 16.2791 12.6235 16.1274 13.5735H6.75162C6.6593 12.5581 5.83027 11.7418 4.79293 11.7418ZM18.0687 12.7806C17.4939 12.7806 17.0015 13.2676 17.0015 13.9011C17.0015 14.5346 17.4938 15.0214 18.0687 15.0214C18.6439 15.0214 19.136 14.5346 19.136 13.9011C19.136 13.2675 18.6438 12.7806 18.0687 12.7806Z" fill="black"/>
<path fill-rule="evenodd" clip-rule="evenodd" d="M14.1196 13.7918V3.79178H15.0196V13.7918H14.1196Z" fill="black"/>
</svg>
