<svg width="24" height="25" viewBox="0 0 24 25" fill="none" xmlns="http://www.w3.org/2000/svg">
<path d="M16.4561 12.9221C17.6384 11.9919 18.5013 10.7164 18.9249 9.27289C19.3485 7.82942 19.3116 6.28982 18.8195 4.86828C18.3273 3.44673 17.4043 2.21394 16.1788 1.34141C14.9534 0.468882 13.4864 0 11.9821 0C10.4778 0 9.01085 0.468882 7.78541 1.34141C6.55997 2.21394 5.63695 3.44673 5.14477 4.86828C4.6526 6.28982 4.61573 7.82942 5.03931 9.27289C5.46289 10.7164 6.32585 11.9919 7.50813 12.9221C5.48227 13.7337 3.71464 15.0799 2.39367 16.8171C1.07271 18.5543 0.247932 20.6175 0.00727395 22.7866C-0.0101461 22.9449 0.00379671 23.1052 0.0483061 23.2581C0.0928155 23.4111 0.16702 23.5538 0.266682 23.6781C0.46796 23.9292 0.760716 24.09 1.08055 24.1251C1.40038 24.1603 1.72109 24.067 1.97212 23.8657C2.22315 23.6644 2.38394 23.3717 2.41913 23.0519C2.68393 20.6945 3.80797 18.5174 5.5765 16.9364C7.34503 15.3554 9.63406 14.4814 12.0062 14.4814C14.3784 14.4814 16.6674 15.3554 18.436 16.9364C20.2045 18.5174 21.3285 20.6945 21.5933 23.0519C21.6261 23.3482 21.7675 23.6218 21.9902 23.82C22.2129 24.0183 22.5011 24.1269 22.7993 24.1251H22.9319C23.248 24.0888 23.537 23.9289 23.7357 23.6804C23.9345 23.432 24.027 23.115 23.9931 22.7986C23.7513 20.6234 22.9221 18.5549 21.5944 16.8151C20.2666 15.0752 18.4904 13.7294 16.4561 12.9221ZM11.9821 12.0659C11.0281 12.0659 10.0955 11.783 9.30221 11.2529C8.50896 10.7229 7.89069 9.96955 7.52559 9.08813C7.1605 8.20671 7.06497 7.23683 7.2511 6.30112C7.43722 5.36542 7.89663 4.50591 8.57124 3.83131C9.24585 3.1567 10.1054 2.69729 11.0411 2.51116C11.9768 2.32504 12.9466 2.42057 13.8281 2.78566C14.7095 3.15075 15.4628 3.76902 15.9929 4.56227C16.5229 5.35553 16.8058 6.28814 16.8058 7.24218C16.8058 8.5215 16.2976 9.74843 15.393 10.6531C14.4884 11.5577 13.2614 12.0659 11.9821 12.0659Z" fill="#282828"/>
</svg>
